<?xml version="1.0" encoding="utf-8"?>
<!-- Generated by Mocodo 4.3.2 -->
<svg width="825" height="760" viewBox="0 0 825 760" xmlns="http://www.w3.org/2000/svg">
<rect x="0" y="0" width="825" height="760" fill="#f7f7f7" stroke="none" stroke-width="0"/>

<!-- Association CONTENIR_CAPTEUR -->
<g>
	<line x1="401" y1="203" x2="401" y2="68" stroke="#de77ae" stroke-width="2"/>
	<line x1="539" y1="68" x2="401" y2="68" stroke="#de77ae" stroke-width="2"/>
	<g>
		<path d="M459 43 a14 14 90 0 1 14 14 V68 h-144 V57 a14 14 90 0 1 14 -14" fill="#f1b6da" stroke="#f1b6da" stroke-width="0"/>
		<path d="M473 68 v11 a14 14 90 0 1 -14 14 H343 a14 14 90 0 1 -14 -14 V68 H144" fill="#fde0ef" stroke="#fde0ef" stroke-width="0"/>
		<rect x="329" y="43" width="144" height="50" fill="none" rx="14" stroke="#de77ae" stroke-width="2"/>
		<line x1="329" y1="68" x2="473" y2="68" stroke="#de77ae" stroke-width="1"/>
		<text x="337" y="60.75" fill="#000000" font-family="Verdana" font-size="12">CONTENIR_CAPTEUR</text>
	</g>
	<text x="406" y="110" fill="#4d9221" font-family="Verdana" font-size="12">0,N</text>
	<text x="479" y="85" fill="#4d9221" font-family="Verdana" font-size="12">1,1</text>
</g>

<!-- Association PRODUIRE -->
<g>
	<line x1="539" y1="68" x2="654" y2="68" stroke="#de77ae" stroke-width="2"/>
	<line x1="771" y1="68" x2="654" y2="68" stroke="#de77ae" stroke-width="2"/>
	<g>
		<path d="M680 43 a14 14 90 0 1 14 14 V68 h-80 V57 a14 14 90 0 1 14 -14" fill="#f1b6da" stroke="#f1b6da" stroke-width="0"/>
		<path d="M694 68 v11 a14 14 90 0 1 -14 14 H628 a14 14 90 0 1 -14 -14 V68 H80" fill="#fde0ef" stroke="#fde0ef" stroke-width="0"/>
		<rect x="614" y="43" width="80" height="50" fill="none" rx="14" stroke="#de77ae" stroke-width="2"/>
		<line x1="614" y1="68" x2="694" y2="68" stroke="#de77ae" stroke-width="1"/>
		<text x="622" y="60.75" fill="#000000" font-family="Verdana" font-size="12">PRODUIRE</text>
	</g>
	<text x="578" y="85" fill="#4d9221" font-family="Verdana" font-size="12">0,N</text>
	<text x="700" y="85" fill="#4d9221" font-family="Verdana" font-size="12">1,1</text>
</g>

<!-- Association CONTENIR_ACTIONNEUR -->
<g>
	<line x1="401" y1="203" x2="217" y2="203" stroke="#de77ae" stroke-width="2"/>
	<line x1="55" y1="203" x2="217" y2="203" stroke="#de77ae" stroke-width="2"/>
	<g>
		<path d="M287 178 a14 14 90 0 1 14 14 V203 h-168 V192 a14 14 90 0 1 14 -14" fill="#f1b6da" stroke="#f1b6da" stroke-width="0"/>
		<path d="M301 203 v11 a14 14 90 0 1 -14 14 H147 a14 14 90 0 1 -14 -14 V203 H168" fill="#fde0ef" stroke="#fde0ef" stroke-width="0"/>
		<rect x="133" y="178" width="168" height="50" fill="none" rx="14" stroke="#de77ae" stroke-width="2"/>
		<line x1="133" y1="203" x2="301" y2="203" stroke="#de77ae" stroke-width="1"/>
		<text x="140" y="195.75" fill="#000000" font-family="Verdana" font-size="12">CONTENIR_ACTIONNEUR</text>
	</g>
	<text x="306" y="195" fill="#4d9221" font-family="Verdana" font-size="12">0,N</text>
	<text x="106" y="220" fill="#4d9221" font-family="Verdana" font-size="12">1,1</text>
</g>

<!-- Association CONSERVER -->
<g>
	<line x1="401" y1="203" x2="539" y2="203" stroke="#de77ae" stroke-width="2"/>
	<line x1="654" y1="203" x2="539" y2="203" stroke="#de77ae" stroke-width="2"/>
	<g>
		<path d="M563 178 a14 14 90 0 1 14 14 V203 h-76 V192 a14 14 90 0 1 14 -14" fill="#f1b6da" stroke="#f1b6da" stroke-width="0"/>
		<path d="M577 203 v11 a14 14 90 0 1 -14 14 H515 a14 14 90 0 1 -14 -14 V203 H76" fill="#fde0ef" stroke="#fde0ef" stroke-width="0"/>
		<rect x="501" y="178" width="76" height="50" fill="none" rx="14" stroke="#de77ae" stroke-width="2"/>
		<line x1="501" y1="203" x2="577" y2="203" stroke="#de77ae" stroke-width="1"/>
		<text x="508" y="195.75" fill="#000000" font-family="Verdana" font-size="12">Conserver</text>
	</g>
	<text x="474" y="220" fill="#4d9221" font-family="Verdana" font-size="12">1,N</text>
	<text x="583" y="220" fill="#4d9221" font-family="Verdana" font-size="12">0,1</text>
</g>

<!-- Association CIBLER -->
<g>
	<line x1="55" y1="203" x2="55" y2="406" stroke="#de77ae" stroke-width="2"/>
	<line x1="217" y1="549" x2="55" y2="406" stroke="#de77ae" stroke-width="2"/>
	<g>
		<path d="M71 381 a14 14 90 0 1 14 14 V406 h-60 V395 a14 14 90 0 1 14 -14" fill="#f1b6da" stroke="#f1b6da" stroke-width="0"/>
		<path d="M85 406 v11 a14 14 90 0 1 -14 14 H39 a14 14 90 0 1 -14 -14 V406 H60" fill="#fde0ef" stroke="#fde0ef" stroke-width="0"/>
		<rect x="25" y="381" width="60" height="50" fill="none" rx="14" stroke="#de77ae" stroke-width="2"/>
		<line x1="25" y1="406" x2="85" y2="406" stroke="#de77ae" stroke-width="1"/>
		<text x="33" y="398.75" fill="#000000" font-family="Verdana" font-size="12">CIBLER</text>
	</g>
	<text x="60" y="271" fill="#4d9221" font-family="Verdana" font-size="12">0,N</text>
	<text x="142" y="516.3" fill="#4d9221" font-family="Verdana" font-size="12">1,1</text>
</g>

<!-- Association APPLIQUER -->
<g>
	<line x1="401" y1="203" x2="217" y2="406" stroke="#de77ae" stroke-width="2"/>
	<line x1="217" y1="549" x2="217" y2="406" stroke="#de77ae" stroke-width="2"/>
	<g>
		<path d="M245 381 a14 14 90 0 1 14 14 V406 h-84 V395 a14 14 90 0 1 14 -14" fill="#f1b6da" stroke="#f1b6da" stroke-width="0"/>
		<path d="M259 406 v11 a14 14 90 0 1 -14 14 H189 a14 14 90 0 1 -14 -14 V406 H84" fill="#fde0ef" stroke="#fde0ef" stroke-width="0"/>
		<rect x="175" y="381" width="84" height="50" fill="none" rx="14" stroke="#de77ae" stroke-width="2"/>
		<line x1="175" y1="406" x2="259" y2="406" stroke="#de77ae" stroke-width="1"/>
		<text x="182" y="398.75" fill="#000000" font-family="Verdana" font-size="12">APPLIQUER</text>
	</g>
	<text x="306" y="276.6" fill="#4d9221" font-family="Verdana" font-size="12">0,N</text>
	<text x="222" y="482" fill="#4d9221" font-family="Verdana" font-size="12">1,1</text>
</g>

<!-- Association POSSEDER -->
<g>
	<line x1="539" y1="406" x2="401" y2="406" stroke="#de77ae" stroke-width="2"/>
	<line x1="401" y1="203" x2="401" y2="406" stroke="#de77ae" stroke-width="2"/>
	<g>
		<path d="M428 381 a14 14 90 0 1 14 14 V406 h-82 V395 a14 14 90 0 1 14 -14" fill="#f1b6da" stroke="#f1b6da" stroke-width="0"/>
		<path d="M442 406 v11 a14 14 90 0 1 -14 14 H374 a14 14 90 0 1 -14 -14 V406 H82" fill="#fde0ef" stroke="#fde0ef" stroke-width="0"/>
		<rect x="360" y="381" width="82" height="50" fill="none" rx="14" stroke="#de77ae" stroke-width="2"/>
		<line x1="360" y1="406" x2="442" y2="406" stroke="#de77ae" stroke-width="1"/>
		<text x="368" y="398.75" fill="#000000" font-family="Verdana" font-size="12">POSSEDER</text>
	</g>
	<text x="465" y="398" fill="#4d9221" font-family="Verdana" font-size="12">0,N</text>
	<text x="406" y="305" fill="#4d9221" font-family="Verdana" font-size="12">1,1</text>
</g>

<!-- Association DEFINIR -->
<g>
	<line x1="539" y1="406" x2="654" y2="406" stroke="#de77ae" stroke-width="2"/>
	<line x1="654" y1="203" x2="654" y2="406" stroke="#de77ae" stroke-width="2"/>
	<g>
		<path d="M673 381 a14 14 90 0 1 14 14 V406 h-66 V395 a14 14 90 0 1 14 -14" fill="#f1b6da" stroke="#f1b6da" stroke-width="0"/>
		<path d="M687 406 v11 a14 14 90 0 1 -14 14 H635 a14 14 90 0 1 -14 -14 V406 H66" fill="#fde0ef" stroke="#fde0ef" stroke-width="0"/>
		<rect x="621" y="381" width="66" height="50" fill="none" rx="14" stroke="#de77ae" stroke-width="2"/>
		<line x1="621" y1="406" x2="687" y2="406" stroke="#de77ae" stroke-width="1"/>
		<text x="628" y="398.75" fill="#000000" font-family="Verdana" font-size="12">DEFINIR</text>
	</g>
	<text x="591" y="398" fill="#4d9221" font-family="Verdana" font-size="12">0,N</text>
	<text x="659" y="271" fill="#4d9221" font-family="Verdana" font-size="12">1,1</text>
</g>

<!-- Association ENVOYER -->
<g>
	<line x1="539" y1="406" x2="401" y2="549" stroke="#de77ae" stroke-width="2"/>
	<line x1="217" y1="549" x2="401" y2="549" stroke="#de77ae" stroke-width="2"/>
	<g>
		<path d="M424 524 a14 14 90 0 1 14 14 V549 h-74 V538 a14 14 90 0 1 14 -14" fill="#f1b6da" stroke="#f1b6da" stroke-width="0"/>
		<path d="M438 549 v11 a14 14 90 0 1 -14 14 H378 a14 14 90 0 1 -14 -14 V549 H74" fill="#fde0ef" stroke="#fde0ef" stroke-width="0"/>
		<rect x="364" y="524" width="74" height="50" fill="none" rx="14" stroke="#de77ae" stroke-width="2"/>
		<line x1="364" y1="549" x2="438" y2="549" stroke="#de77ae" stroke-width="1"/>
		<text x="372" y="541.75" fill="#000000" font-family="Verdana" font-size="12">ENVOYER</text>
	</g>
	<text x="465" y="453.6" fill="#4d9221" font-family="Verdana" font-size="12">0,N</text>
	<text x="271" y="566" fill="#4d9221" font-family="Verdana" font-size="12">1,1</text>
</g>

<!-- Association CONSULTER -->
<g>
	<line x1="539" y1="406" x2="539" y2="549" stroke="#de77ae" stroke-width="2"/>
	<line x1="539" y1="675" x2="539" y2="549" stroke="#de77ae" stroke-width="2"/>
	<g>
		<path d="M570 524 a14 14 90 0 1 14 14 V549 h-90 V538 a14 14 90 0 1 14 -14" fill="#f1b6da" stroke="#f1b6da" stroke-width="0"/>
		<path d="M584 549 v11 a14 14 90 0 1 -14 14 H508 a14 14 90 0 1 -14 -14 V549 H90" fill="#fde0ef" stroke="#fde0ef" stroke-width="0"/>
		<rect x="494" y="524" width="90" height="50" fill="none" rx="14" stroke="#de77ae" stroke-width="2"/>
		<line x1="494" y1="549" x2="584" y2="549" stroke="#de77ae" stroke-width="1"/>
		<text x="502" y="541.75" fill="#000000" font-family="Verdana" font-size="12">CONSULTER</text>
	</g>
	<text x="544" y="516" fill="#4d9221" font-family="Verdana" font-size="12">0,N</text>
	<text x="544" y="591" fill="#4d9221" font-family="Verdana" font-size="12">0,N</text>
</g>

<!-- Association VOIR -->
<g>
	<line x1="539" y1="406" x2="654" y2="549" stroke="#de77ae" stroke-width="2"/>
	<line x1="771" y1="549" x2="654" y2="549" stroke="#de77ae" stroke-width="2"/>
	<g>
		<path d="M663 524 a14 14 90 0 1 14 14 V549 h-46 V538 a14 14 90 0 1 14 -14" fill="#f1b6da" stroke="#f1b6da" stroke-width="0"/>
		<path d="M677 549 v11 a14 14 90 0 1 -14 14 H645 a14 14 90 0 1 -14 -14 V549 H46" fill="#fde0ef" stroke="#fde0ef" stroke-width="0"/>
		<rect x="631" y="524" width="46" height="50" fill="none" rx="14" stroke="#de77ae" stroke-width="2"/>
		<line x1="631" y1="549" x2="677" y2="549" stroke="#de77ae" stroke-width="1"/>
		<text x="638" y="541.75" fill="#000000" font-family="Verdana" font-size="12">VOIR</text>
	</g>
	<text x="591" y="462.44" fill="#4d9221" font-family="Verdana" font-size="12">0,N</text>
	<text x="701" y="566" fill="#4d9221" font-family="Verdana" font-size="12">0,1</text>
</g>

<!-- Entity CAPTEUR -->
<g>
	<g>
		<rect x="505" y="17" width="68" height="25" fill="#b8e186" stroke="none" stroke-width="0" opacity="1"/>
		<rect x="505" y="42" width="68" height="77" fill="#e6f5d0" stroke="none" stroke-width="0" opacity="1"/>
		<rect x="505" y="17" width="68" height="102" fill="none" stroke="#7fbc41" stroke-width="2" opacity="1"/>
		<line x1="505" y1="42" x2="573" y2="42" stroke="#7fbc41" stroke-width="1"/>
	</g>
	<text x="511" y="34.75" fill="#000000" font-family="Verdana" font-size="12">CAPTEUR</text>
	<text x="510" y="59.8" fill="#000000" font-family="Verdana" font-size="12">id</text>
	<line x1="510" y1="62" x2="522" y2="62" stroke="#000000" stroke-width="1"/>
	<text x="510" y="76.8" fill="#000000" font-family="Verdana" font-size="12">type</text>
	<text x="510" y="93.8" fill="#000000" font-family="Verdana" font-size="12">statut</text>
	<text x="510" y="110.8" fill="#000000" font-family="Verdana" font-size="12">last_seen</text>
</g>

<!-- Entity DONNEES -->
<g>
	<g>
		<rect x="726" y="9" width="90" height="25" fill="#b8e186" stroke="none" stroke-width="0" opacity="1"/>
		<rect x="726" y="34" width="90" height="93" fill="#e6f5d0" stroke="none" stroke-width="0" opacity="1"/>
		<rect x="726" y="9" width="90" height="118" fill="none" stroke="#7fbc41" stroke-width="2" opacity="1"/>
		<line x1="726" y1="34" x2="816" y2="34" stroke="#7fbc41" stroke-width="1"/>
	</g>
	<text x="741" y="26.75" fill="#000000" font-family="Verdana" font-size="12">DONNEES</text>
	<text x="731" y="51.8" fill="#000000" font-family="Verdana" font-size="12">id</text>
	<line x1="731" y1="54" x2="743" y2="54" stroke="#000000" stroke-width="1"/>
	<text x="731" y="68.8" fill="#000000" font-family="Verdana" font-size="12">type_mesure</text>
	<text x="731" y="85.8" fill="#000000" font-family="Verdana" font-size="12">valeur</text>
	<text x="731" y="102.8" fill="#000000" font-family="Verdana" font-size="12">unite</text>
	<text x="731" y="119.8" fill="#000000" font-family="Verdana" font-size="12">date_arrivee</text>
</g>

<!-- Entity ACTIONNEUR -->
<g>
	<g>
		<rect x="9" y="152" width="92" height="25" fill="#b8e186" stroke="none" stroke-width="0" opacity="1"/>
		<rect x="9" y="177" width="92" height="77" fill="#e6f5d0" stroke="none" stroke-width="0" opacity="1"/>
		<rect x="9" y="152" width="92" height="102" fill="none" stroke="#7fbc41" stroke-width="2" opacity="1"/>
		<line x1="9" y1="177" x2="101" y2="177" stroke="#7fbc41" stroke-width="1"/>
	</g>
	<text x="14" y="169.75" fill="#000000" font-family="Verdana" font-size="12">ACTIONNEUR</text>
	<text x="14" y="194.8" fill="#000000" font-family="Verdana" font-size="12">id</text>
	<line x1="14" y1="197" x2="26" y2="197" stroke="#000000" stroke-width="1"/>
	<text x="14" y="211.8" fill="#000000" font-family="Verdana" font-size="12">type</text>
	<text x="14" y="228.8" fill="#000000" font-family="Verdana" font-size="12">statut</text>
	<text x="14" y="245.8" fill="#000000" font-family="Verdana" font-size="12">last_seen</text>
</g>

<!-- Entity MICROCONTROLEUR -->
<g>
	<g>
		<rect x="333" y="118" width="136" height="25" fill="#b8e186" stroke="none" stroke-width="0" opacity="1"/>
		<rect x="333" y="143" width="136" height="145" fill="#e6f5d0" stroke="none" stroke-width="0" opacity="1"/>
		<rect x="333" y="118" width="136" height="170" fill="none" stroke="#7fbc41" stroke-width="2" opacity="1"/>
		<line x1="333" y1="143" x2="469" y2="143" stroke="#7fbc41" stroke-width="1"/>
	</g>
	<text x="338" y="135.75" fill="#000000" font-family="Verdana" font-size="12">MICROCONTROLEUR</text>
	<text x="338" y="160.8" fill="#000000" font-family="Verdana" font-size="12">id</text>
	<line x1="338" y1="163" x2="350" y2="163" stroke="#000000" stroke-width="1"/>
	<text x="338" y="177.8" fill="#000000" font-family="Verdana" font-size="12">nom</text>
	<text x="338" y="194.8" fill="#000000" font-family="Verdana" font-size="12">mac_address</text>
	<text x="338" y="211.8" fill="#000000" font-family="Verdana" font-size="12">reference</text>
	<text x="338" y="228.8" fill="#000000" font-family="Verdana" font-size="12">statut</text>
	<text x="338" y="245.8" fill="#000000" font-family="Verdana" font-size="12">last_connexion</text>
	<text x="338" y="262.8" fill="#000000" font-family="Verdana" font-size="12">date_installation</text>
	<text x="338" y="279.8" fill="#000000" font-family="Verdana" font-size="12">passkey</text>
</g>

<!-- Entity SEUIL -->
<g>
	<g>
		<rect x="609" y="152" width="90" height="25" fill="#b8e186" stroke="none" stroke-width="0" opacity="1"/>
		<rect x="609" y="177" width="90" height="77" fill="#e6f5d0" stroke="none" stroke-width="0" opacity="1"/>
		<rect x="609" y="152" width="90" height="102" fill="none" stroke="#7fbc41" stroke-width="2" opacity="1"/>
		<line x1="609" y1="177" x2="699" y2="177" stroke="#7fbc41" stroke-width="1"/>
	</g>
	<text x="636" y="169.75" fill="#000000" font-family="Verdana" font-size="12">SEUIL</text>
	<text x="614" y="194.8" fill="#000000" font-family="Verdana" font-size="12">id</text>
	<line x1="614" y1="197" x2="626" y2="197" stroke="#000000" stroke-width="1"/>
	<text x="614" y="211.8" fill="#000000" font-family="Verdana" font-size="12">type_mesure</text>
	<text x="614" y="228.8" fill="#000000" font-family="Verdana" font-size="12">valeur</text>
	<text x="614" y="245.8" fill="#000000" font-family="Verdana" font-size="12">updated_at</text>
</g>

<!-- Entity UTILISATEUR -->
<g>
	<g>
		<rect x="492" y="313" width="94" height="25" fill="#b8e186" stroke="none" stroke-width="0" opacity="1"/>
		<rect x="492" y="338" width="94" height="161" fill="#e6f5d0" stroke="none" stroke-width="0" opacity="1"/>
		<rect x="492" y="313" width="94" height="186" fill="none" stroke="#7fbc41" stroke-width="2" opacity="1"/>
		<line x1="492" y1="338" x2="586" y2="338" stroke="#7fbc41" stroke-width="1"/>
	</g>
	<text x="498" y="330.75" fill="#000000" font-family="Verdana" font-size="12">UTILISATEUR</text>
	<text x="497" y="355.8" fill="#000000" font-family="Verdana" font-size="12">id</text>
	<line x1="497" y1="358" x2="509" y2="358" stroke="#000000" stroke-width="1"/>
	<text x="497" y="372.8" fill="#000000" font-family="Verdana" font-size="12">email</text>
	<text x="497" y="389.8" fill="#000000" font-family="Verdana" font-size="12">nom</text>
	<text x="497" y="406.8" fill="#000000" font-family="Verdana" font-size="12">prenom</text>
	<text x="497" y="423.8" fill="#000000" font-family="Verdana" font-size="12">password</text>
	<text x="497" y="440.8" fill="#000000" font-family="Verdana" font-size="12">role</text>
	<text x="497" y="457.8" fill="#000000" font-family="Verdana" font-size="12">status</text>
	<text x="497" y="474.8" fill="#000000" font-family="Verdana" font-size="12">created_at</text>
	<text x="497" y="491.8" fill="#000000" font-family="Verdana" font-size="12">updated_at</text>
</g>

<!-- Entity INSTRUCTION -->
<g>
	<g>
		<rect x="168" y="490" width="98" height="25" fill="#b8e186" stroke="none" stroke-width="0" opacity="1"/>
		<rect x="168" y="515" width="98" height="93" fill="#e6f5d0" stroke="none" stroke-width="0" opacity="1"/>
		<rect x="168" y="490" width="98" height="118" fill="none" stroke="#7fbc41" stroke-width="2" opacity="1"/>
		<line x1="168" y1="515" x2="266" y2="515" stroke="#7fbc41" stroke-width="1"/>
	</g>
	<text x="174" y="507.75" fill="#000000" font-family="Verdana" font-size="12">INSTRUCTION</text>
	<text x="173" y="532.8" fill="#000000" font-family="Verdana" font-size="12">id</text>
	<line x1="173" y1="535" x2="185" y2="535" stroke="#000000" stroke-width="1"/>
	<text x="173" y="549.8" fill="#000000" font-family="Verdana" font-size="12">type</text>
	<text x="173" y="566.8" fill="#000000" font-family="Verdana" font-size="12">duree</text>
	<text x="173" y="583.8" fill="#000000" font-family="Verdana" font-size="12">statut</text>
	<text x="173" y="600.8" fill="#000000" font-family="Verdana" font-size="12">date_arrivee</text>
</g>

<!-- Entity ALERTE -->
<g>
	<g>
		<rect x="727" y="490" width="88" height="25" fill="#b8e186" stroke="none" stroke-width="0" opacity="1"/>
		<rect x="727" y="515" width="88" height="93" fill="#e6f5d0" stroke="none" stroke-width="0" opacity="1"/>
		<rect x="727" y="490" width="88" height="118" fill="none" stroke="#7fbc41" stroke-width="2" opacity="1"/>
		<line x1="727" y1="515" x2="815" y2="515" stroke="#7fbc41" stroke-width="1"/>
	</g>
	<text x="748" y="507.75" fill="#000000" font-family="Verdana" font-size="12">ALERTE</text>
	<text x="732" y="532.8" fill="#000000" font-family="Verdana" font-size="12">id</text>
	<line x1="732" y1="535" x2="744" y2="535" stroke="#000000" stroke-width="1"/>
	<text x="732" y="549.8" fill="#000000" font-family="Verdana" font-size="12">type</text>
	<text x="732" y="566.8" fill="#000000" font-family="Verdana" font-size="12">message</text>
	<text x="732" y="583.8" fill="#000000" font-family="Verdana" font-size="12">statut</text>
	<text x="732" y="600.8" fill="#000000" font-family="Verdana" font-size="12">date_arrivee</text>
</g>

<!-- Entity LOG -->
<g>
	<g>
		<rect x="496" y="599" width="86" height="25" fill="#b8e186" stroke="none" stroke-width="0" opacity="1"/>
		<rect x="496" y="624" width="86" height="127" fill="#e6f5d0" stroke="none" stroke-width="0" opacity="1"/>
		<rect x="496" y="599" width="86" height="152" fill="none" stroke="#7fbc41" stroke-width="2" opacity="1"/>
		<line x1="496" y1="624" x2="582" y2="624" stroke="#7fbc41" stroke-width="1"/>
	</g>
	<text x="526" y="616.75" fill="#000000" font-family="Verdana" font-size="12">LOG</text>
	<text x="501" y="641.8" fill="#000000" font-family="Verdana" font-size="12">id</text>
	<line x1="501" y1="644" x2="513" y2="644" stroke="#000000" stroke-width="1"/>
	<text x="501" y="658.8" fill="#000000" font-family="Verdana" font-size="12">type</text>
	<text x="501" y="675.8" fill="#000000" font-family="Verdana" font-size="12">description</text>
	<text x="501" y="692.8" fill="#000000" font-family="Verdana" font-size="12">date</text>
	<text x="501" y="709.8" fill="#000000" font-family="Verdana" font-size="12">source_type</text>
	<text x="501" y="726.8" fill="#000000" font-family="Verdana" font-size="12">source_id</text>
	<text x="501" y="743.8" fill="#000000" font-family="Verdana" font-size="12">gravite</text>
</g>
</svg>